<svg width="74" height="74" viewBox="0 0 74 74" fill="none" xmlns="http://www.w3.org/2000/svg">
<rect width="74" height="74" rx="8" fill="black"/>
<path d="M20.8666 33.4019C21.312 32.9566 21.916 32.7065 22.5457 32.7065C23.1755 32.7065 23.7795 32.9566 24.2249 33.4019L32.6229 41.7999L49.4141 25.0063C49.6346 24.7856 49.8964 24.6105 50.1846 24.4911C50.4728 24.3716 50.7816 24.31 51.0936 24.3099C51.4056 24.3098 51.7145 24.3711 52.0027 24.4904C52.291 24.6097 52.5529 24.7846 52.7736 25.0051C52.9942 25.2256 53.1693 25.4874 53.2888 25.7756C53.4083 26.0637 53.4698 26.3726 53.4699 26.6845C53.47 26.9965 53.4087 27.3054 53.2894 27.5937C53.1701 27.8819 52.9953 28.1439 52.7747 28.3645L32.6229 48.5164L20.8666 36.7601C20.4214 36.3148 20.1713 35.7108 20.1713 35.081C20.1713 34.4512 20.4214 33.8473 20.8666 33.4019Z" fill="white"/>
</svg>
