<svg width="34" height="34" viewBox="0 0 34 34" fill="none" xmlns="http://www.w3.org/2000/svg">
<circle cx="16.7895" cy="16.6316" r="16.1316" stroke="#A6A6A6"/>
<g clip-path="url(#clip0_2_1799)">
<path d="M19.1 14.6C18.589 14.5982 18.0828 14.6973 17.6101 14.8914C17.1374 15.0855 16.7077 15.3709 16.3455 15.7313C15.9832 16.0917 15.6956 16.5199 15.4991 16.9916C15.3025 17.4633 15.2009 17.969 15.2 18.48V22.4C15.2 22.5591 15.2632 22.7117 15.3757 22.8243C15.4883 22.9368 15.6409 23 15.8 23H17.2C17.3591 23 17.5118 22.9368 17.6243 22.8243C17.7368 22.7117 17.8 22.5591 17.8 22.4V18.48C17.7999 18.2983 17.8381 18.1185 17.912 17.9526C17.986 17.7866 18.0942 17.638 18.2294 17.5166C18.3646 17.3952 18.5239 17.3037 18.6969 17.248C18.8699 17.1923 19.0527 17.1737 19.2333 17.1933C19.5574 17.2341 19.8551 17.3924 20.0702 17.6382C20.2852 17.884 20.4026 18.2001 20.4 18.5267V22.4C20.4 22.5591 20.4632 22.7117 20.5757 22.8243C20.6883 22.9368 20.8409 23 21 23H22.4C22.5591 23 22.7118 22.9368 22.8243 22.8243C22.9368 22.7117 23 22.5591 23 22.4V18.48C22.9991 17.969 22.8975 17.4633 22.701 16.9916C22.5044 16.5199 22.2168 16.0917 21.8546 15.7313C21.4923 15.3709 21.0626 15.0855 20.5899 14.8914C20.1173 14.6973 19.611 14.5982 19.1 14.6Z" fill="#A6A6A6"/>
<path d="M13.4 15.2H11.6C11.2686 15.2 11 15.4686 11 15.8V22.4C11 22.7314 11.2686 23 11.6 23H13.4C13.7314 23 14 22.7314 14 22.4V15.8C14 15.4686 13.7314 15.2 13.4 15.2Z" fill="#A6A6A6"/>
<path d="M12.5 14C13.3284 14 14 13.3284 14 12.5C14 11.6716 13.3284 11 12.5 11C11.6716 11 11 11.6716 11 12.5C11 13.3284 11.6716 14 12.5 14Z" fill="#A6A6A6"/>
</g>
<defs>
<clipPath id="clip0_2_1799">
<rect width="16" height="16" fill="white" transform="translate(9 9)"/>
</clipPath>
</defs>
</svg>
