<svg width="34" height="34" viewBox="0 0 34 34" fill="none" xmlns="http://www.w3.org/2000/svg">
<circle cx="16.6316" cy="16.6316" r="16.1316" stroke="#A6A6A6"/>
<path d="M13.2169 17.5216H14.9708V24.7419C14.9708 24.8845 15.0863 25 15.2288 25H18.2026C18.3451 25 18.4606 24.8845 18.4606 24.7419V17.5556H20.4768C20.6079 17.5556 20.7182 17.4572 20.7332 17.327L21.0394 14.6689C21.0478 14.5957 21.0247 14.5225 20.9757 14.4676C20.9268 14.4127 20.8567 14.3813 20.7831 14.3813H18.4607V12.715C18.4607 12.2127 18.7312 11.958 19.2647 11.958C19.3407 11.958 20.7831 11.958 20.7831 11.958C20.9257 11.958 21.0412 11.8424 21.0412 11.6999V9.25997C21.0412 9.11742 20.9257 9.00191 20.7831 9.00191H18.6905C18.6757 9.00119 18.6429 9 18.5946 9C18.2315 9 16.9694 9.07128 15.9725 9.98844C14.8679 11.0048 15.0214 12.2217 15.0581 12.4327V14.3812H13.2169C13.0744 14.3812 12.9589 14.4967 12.9589 14.6393V17.2635C12.9589 17.406 13.0744 17.5216 13.2169 17.5216Z" fill="#A6A6A6"/>
</svg>
