<svg width="34" height="34" viewBox="0 0 34 34" fill="none" xmlns="http://www.w3.org/2000/svg">
<circle cx="17.2107" cy="16.6316" r="16.1316" stroke="#A6A6A6"/>
<path d="M23.5 12.9734C23.0219 13.1797 22.5016 13.3281 21.9656 13.3859C22.5221 13.0554 22.9387 12.5331 23.1375 11.9172C22.6154 12.2278 22.0434 12.4456 21.4469 12.5609C21.1976 12.2944 20.8961 12.0821 20.5611 11.9372C20.2262 11.7923 19.865 11.718 19.5 11.7188C18.0234 11.7188 16.8359 12.9156 16.8359 14.3844C16.8359 14.5906 16.8609 14.7969 16.9016 14.9953C14.6906 14.8797 12.7188 13.8234 11.4078 12.2063C11.169 12.6142 11.0438 13.0788 11.0453 13.5516C11.0453 14.4766 11.5156 15.2922 12.2328 15.7719C11.8102 15.7552 11.3974 15.6391 11.0281 15.4328V15.4656C11.0281 16.7609 11.9438 17.8344 13.1641 18.0813C12.9349 18.1408 12.6992 18.1712 12.4625 18.1719C12.2891 18.1719 12.125 18.1547 11.9594 18.1313C12.2969 19.1875 13.2797 19.9547 14.45 19.9797C13.5344 20.6969 12.3875 21.1188 11.1422 21.1188C10.9188 21.1188 10.7125 21.1109 10.4984 21.0859C11.6797 21.8438 13.0813 22.2813 14.5906 22.2813C19.4906 22.2813 22.1719 18.2219 22.1719 14.6984C22.1719 14.5828 22.1719 14.4672 22.1641 14.3516C22.6828 13.9719 23.1375 13.5016 23.5 12.9734Z" fill="#A6A6A6"/>
</svg>
